<?xml version="1.0" encoding="utf-8"?>
<!-- Generator: Adobe Illustrator 21.0.0, SVG Export Plug-In . SVG Version: 6.00 Build 0)  -->
<svg version="1.1" id="Layer_2" xmlns="http://www.w3.org/2000/svg" xmlns:xlink="http://www.w3.org/1999/xlink" x="0px" y="0px"
	 viewBox="0 0 1013.8 930" style="enable-background:new 0 0 1013.8 930;" xml:space="preserve">
<style type="text/css">
	.st0{fill:#666666;}
	.st1{fill:url(#SVGID_1_);}
	.st2{stroke:#F2F2F2;stroke-miterlimit:10;}
	.st3{fill:#4D4D4D;}
	.st4{fill:url(#SVGID_2_);}
	.st5{fill:url(#SVGID_3_);}
	.st6{fill:url(#SVGID_4_);}
	.st7{fill:url(#SVGID_5_);}
	.st8{fill:url(#SVGID_6_);}
	.st9{fill:#1A1A1A;}
	.st10{fill:url(#SVGID_7_);}
	.st11{fill:url(#SVGID_8_);}
	.st12{fill:url(#SVGID_9_);}
	.st13{fill:url(#SVGID_10_);}
	.st14{fill:url(#SVGID_11_);}
	.st15{fill:url(#SVGID_12_);}
	.st16{fill:url(#SVGID_13_);}
	.st17{fill:url(#SVGID_14_);}
	.st18{fill:url(#SVGID_15_);}
	.st19{fill:url(#SVGID_16_);}
	.st20{fill:url(#SVGID_17_);}
	.st21{fill:url(#SVGID_18_);}
	.st22{fill:url(#SVGID_19_);}
	.st23{fill:url(#SVGID_20_);}
	.st24{fill:url(#SVGID_21_);}
	.st25{fill:url(#SVGID_22_);}
	.st26{fill:url(#SVGID_23_);}
	.st27{fill:url(#SVGID_24_);}
	.st28{fill:url(#SVGID_25_);}
	.st29{fill:url(#SVGID_26_);}
	.st30{fill:url(#SVGID_27_);}
	.st31{fill:url(#SVGID_28_);}
	.st32{fill:url(#SVGID_29_);}
	.st33{fill:url(#SVGID_30_);}
	.st34{fill:url(#SVGID_31_);}
	.st35{fill:#333333;}
	.st36{fill:url(#SVGID_32_);}
	.st37{fill:url(#SVGID_33_);}
	.st38{fill:url(#SVGID_34_);}
	.st39{fill:url(#SVGID_35_);}
	.st40{fill:url(#SVGID_36_);}
	.st41{fill:url(#SVGID_37_);}
	.st42{fill:url(#SVGID_38_);}
	.st43{fill:url(#SVGID_39_);}
	.st44{fill:url(#SVGID_40_);}
	.st45{fill:url(#SVGID_41_);}
	.st46{fill:url(#SVGID_42_);}
	.st47{fill:url(#SVGID_43_);}
	.st48{fill:url(#SVGID_44_);}
</style>
<g>
	<polygon class="st0" points="260.2,325.4 136.2,242.3 191.9,117 259.2,151.8 270.5,163.7 328.1,196.8 304.2,263.2 	"/>
	<linearGradient id="SVGID_1_" gradientUnits="userSpaceOnUse" x1="286.2872" y1="170.0357" x2="228.6652" y2="312.655">
		<stop  offset="0.1535" style="stop-color:#8C8C8C"/>
		<stop  offset="1" style="stop-color:#000000"/>
	</linearGradient>
	<polygon class="st1" points="260.2,325.4 223.1,189 270.5,163.7 328.1,196.8 304.2,263.2 	"/>
	<polygon class="st2" points="190.9,279 88.9,248.6 0,143.3 167.1,172.7 136.2,242.3 	"/>
	<polygon class="st3" points="506.9,803 398.8,738 328.1,559 281.1,504 264.6,424.1 278.3,398.8 260.2,325.4 304.2,263.2 
		328.1,196.8 506.9,149 	"/>
	<linearGradient id="SVGID_2_" gradientUnits="userSpaceOnUse" x1="395.1874" y1="144.3424" x2="488.1681" y2="263.3522">
		<stop  offset="0" style="stop-color:#CCCCCC"/>
		<stop  offset="1" style="stop-color:#000000"/>
	</linearGradient>
	<polygon class="st4" points="328.1,196.8 432.9,306.5 506.9,149 	"/>
	<polygon class="st0" points="426.9,438 432.9,559 424.9,576 385.8,602.4 	"/>
	<linearGradient id="SVGID_3_" gradientUnits="userSpaceOnUse" x1="300.9005" y1="554.6937" x2="328.5013" y2="380.4287">
		<stop  offset="2.475247e-03" style="stop-color:#BABABA"/>
		<stop  offset="0.8812" style="stop-color:#292929"/>
	</linearGradient>
	<polygon class="st5" points="281.1,504 319.5,379 328.1,559 	"/>
	<linearGradient id="SVGID_4_" gradientUnits="userSpaceOnUse" x1="428.0761" y1="437.5886" x2="473.8032" y2="570.3897">
		<stop  offset="0.3045" style="stop-color:#8C8C8C"/>
		<stop  offset="1" style="stop-color:#000000"/>
	</linearGradient>
	<polygon class="st6" points="426.9,438 506.9,559 432.9,559 	"/>
	<linearGradient id="SVGID_5_" gradientUnits="userSpaceOnUse" x1="330.4038" y1="603.1608" x2="391.578" y2="599.9548">
		<stop  offset="0.4183" style="stop-color:#BABABA"/>
		<stop  offset="1" style="stop-color:#3D3D3D"/>
	</linearGradient>
	<polygon class="st7" points="372.3,462.5 398.8,738 328.1,559 	"/>
	<linearGradient id="SVGID_6_" gradientUnits="userSpaceOnUse" x1="305.7734" y1="286.2699" x2="437.0271" y2="318.9951">
		<stop  offset="0" style="stop-color:#8C8C8C"/>
		<stop  offset="0.9257" style="stop-color:#000000"/>
	</linearGradient>
	<polygon class="st8" points="328.1,196.8 414.7,408.5 432.9,306.5 	"/>
	<path class="st9" d="M47.5,460"/>
	<polygon points="402.5,379 340.4,365.3 319.5,379 367.9,419.3 426.9,438 	"/>
	<polygon class="st2" points="469,816.6 448.5,835.3 465.9,930 389,835.3 416.1,748.4 441.2,763.5 	"/>
	<polygon class="st2" points="402.5,851.9 398.8,912 351.2,821 398.8,738 416.1,748.4 389,835.3 	"/>
	<polygon class="st2" points="244.4,730.8 295.6,862 308,794.5 305.7,788.9 330.9,670 362.5,644.7 333.7,574.8 270.5,672.3 	"/>
	<polygon class="st2" points="305.7,788.9 336.3,862 362.2,842 351.2,821 398.8,738 362.5,644.7 330.9,670 	"/>
	<polygon class="st2" points="109.1,162.7 47.5,41.9 173.8,68 259.2,151.8 191.9,117 167.1,172.7 	"/>
	<polyline class="st2" points="506.9,149 373.2,89.1 312.9,0 413.4,24.8 506.9,149 	"/>
	<polygon class="st2" points="351.2,56.6 278.2,11.6 165.7,0 305.2,95.8 413.8,173.9 506.9,149 373.2,89.1 	"/>
	<path class="st2" d="M259.2,151.8"/>
	<polyline class="st2" points="281.1,504 328.1,559 333.7,574.8 270.5,672.3 218.5,788.9 210.5,621.7 227.1,563.7 281.1,504 	"/>
	<linearGradient id="SVGID_7_" gradientUnits="userSpaceOnUse" x1="514.7615" y1="396.6125" x2="415.2386" y2="368.0747">
		<stop  offset="0" style="stop-color:#8C8C8C"/>
		<stop  offset="0.9307" style="stop-color:#000000"/>
	</linearGradient>
	<polygon class="st10" points="432.9,306.5 506.9,424.1 426.9,438 414.7,408.5 	"/>
	<linearGradient id="SVGID_8_" gradientUnits="userSpaceOnUse" x1="161.8417" y1="178.5905" x2="200.3073" y2="197.3515">
		<stop  offset="0" style="stop-color:#BFBFBF"/>
		<stop  offset="1" style="stop-color:#000000"/>
	</linearGradient>
	<polygon class="st11" points="136.2,242.3 198.5,201.1 191.9,117 	"/>
	<linearGradient id="SVGID_9_" gradientUnits="userSpaceOnUse" x1="421.7185" y1="648.4141" x2="475.0547" y2="606.7432">
		<stop  offset="0" style="stop-color:#8C8C8C"/>
		<stop  offset="1" style="stop-color:#242424"/>
	</linearGradient>
	<polygon class="st12" points="424.9,576 449.3,599.9 474,605.4 506.9,656 424.9,640.7 385.8,602.4 	"/>
	<linearGradient id="SVGID_10_" gradientUnits="userSpaceOnUse" x1="158.025" y1="214.4174" x2="275.3024" y2="306.0446">
		<stop  offset="0.1832" style="stop-color:#8C8C8C"/>
		<stop  offset="1" style="stop-color:#000000"/>
	</linearGradient>
	<polygon class="st13" points="198.5,201.1 136.2,242.3 260.2,325.4 	"/>
	<linearGradient id="SVGID_11_" gradientUnits="userSpaceOnUse" x1="308.145" y1="472.6108" x2="360.7309" y2="460.4704">
		<stop  offset="0.401" style="stop-color:#8C8C8C"/>
		<stop  offset="0.9851" style="stop-color:#000000"/>
	</linearGradient>
	<polygon class="st14" points="319.5,379 347.3,402.2 328.1,559 	"/>
	<linearGradient id="SVGID_12_" gradientUnits="userSpaceOnUse" x1="347.2626" y1="538.3196" x2="450.0499" y2="476.5588">
		<stop  offset="0" style="stop-color:#8C8C8C"/>
		<stop  offset="0.9851" style="stop-color:#000000"/>
	</linearGradient>
	<polygon class="st15" points="389,426 372.3,462.5 385.8,602.4 426.9,438 	"/>
	<linearGradient id="SVGID_13_" gradientUnits="userSpaceOnUse" x1="262.4456" y1="416.4336" x2="324.6283" y2="403.2162">
		<stop  offset="0" style="stop-color:#8C8C8C"/>
		<stop  offset="1" style="stop-color:#000000"/>
	</linearGradient>
	<polyline class="st16" points="260.2,325.4 319.5,379 281.1,504 264.6,424.1 278.3,398.8 260.2,325.4 	"/>
	<polygon class="st2" points="241.9,325.4 115.8,394.7 101.9,390.6 101.9,516 145.5,486.3 278.3,398.8 260.2,325.4 	"/>
	<polygon class="st2" points="242,52.4 191.9,41.9 133,59.5 173.8,68 259.2,151.8 270.5,163.7 304.2,263.2 328.1,196.8 413.8,173.9 
			"/>
	<polygon class="st2" points="284.4,204.5 190.9,279 88.9,248.6 70.9,258 37.2,256.7 69.9,325 241.9,325.4 260.2,325.4 304.2,263.2 
			"/>
	<linearGradient id="SVGID_14_" gradientUnits="userSpaceOnUse" x1="260.1875" y1="325.3908" x2="260.1875" y2="325.3908">
		<stop  offset="0" style="stop-color:#8C8C8C"/>
		<stop  offset="0.3639" style="stop-color:#989A9D"/>
		<stop  offset="1" style="stop-color:#000000"/>
	</linearGradient>
	<path class="st17" d="M260.2,325.4"/>
	<linearGradient id="SVGID_15_" gradientUnits="userSpaceOnUse" x1="231.974" y1="118.4001" x2="229.5007" y2="189.2245">
		<stop  offset="0" style="stop-color:#BFBFBF"/>
		<stop  offset="1" style="stop-color:#000000"/>
	</linearGradient>
	<polygon class="st18" points="259.2,151.8 191.9,117 223.1,189 270.5,163.7 	"/>
	<polygon class="st2" points="281.1,504 264.6,424.1 278.3,398.8 145.5,486.3 143.5,520.2 136.2,748.4 210.5,621.7 227.1,563.7 	"/>
	<linearGradient id="SVGID_16_" gradientUnits="userSpaceOnUse" x1="360.8423" y1="557.8563" x2="355.3951" y2="401.8717">
		<stop  offset="0" style="stop-color:#8C8C8C"/>
		<stop  offset="0.7624" style="stop-color:#000000"/>
	</linearGradient>
	<polygon class="st19" points="347.3,402.2 367.9,419.3 389,426 328.1,559 	"/>
	<polygon class="st2" points="109.9,325.4 101.9,351.7 84,355.1 23.9,367.8 115.8,394.7 241.9,325.4 	"/>
	<linearGradient id="SVGID_17_" gradientUnits="userSpaceOnUse" x1="280.8531" y1="249.2263" x2="412.5882" y2="367.8412">
		<stop  offset="0.3713" style="stop-color:#8A8A8A"/>
		<stop  offset="1" style="stop-color:#000000"/>
	</linearGradient>
	<polygon class="st20" points="328.1,196.8 304.2,263.2 260.2,325.4 319.5,379 340.4,365.3 402.5,379 	"/>
	<polygon class="st0" points="753.6,325.4 877.5,242.3 821.9,117 754.6,151.8 743.2,163.7 685.7,196.8 709.5,263.2 	"/>
	
		<linearGradient id="SVGID_18_" gradientUnits="userSpaceOnUse" x1="666.4606" y1="170.0357" x2="608.8386" y2="312.655" gradientTransform="matrix(-1 0 0 1 1393.9362 0)">
		<stop  offset="0.1535" style="stop-color:#8C8C8C"/>
		<stop  offset="1" style="stop-color:#000000"/>
	</linearGradient>
	<polygon class="st21" points="753.6,325.4 790.7,189 743.2,163.7 685.7,196.8 709.5,263.2 	"/>
	<polygon class="st2" points="822.9,279 924.8,248.6 1013.8,143.3 846.6,172.7 877.5,242.3 	"/>
	<polygon class="st3" points="506.9,803 615,738 685.7,559 732.7,504 749.2,424.1 735.5,398.8 753.6,325.4 709.5,263.2 685.7,196.8 
		506.9,149 	"/>
	<g>
		<linearGradient id="SVGID_19_" gradientUnits="userSpaceOnUse" x1="465.1959" y1="655.2723" x2="466.866" y2="559.5931">
			<stop  offset="0" style="stop-color:#292929"/>
			<stop  offset="0.401" style="stop-color:#000000"/>
		</linearGradient>
		<polygon class="st22" points="432.9,559 424.9,576 449.3,599.9 474,605.4 506.9,656 506.9,581 		"/>
		
			<linearGradient id="SVGID_20_" gradientUnits="userSpaceOnUse" x1="845.3693" y1="655.2723" x2="847.0393" y2="559.5931" gradientTransform="matrix(-1 0 0 1 1393.9362 0)">
			<stop  offset="0" style="stop-color:#292929"/>
			<stop  offset="0.401" style="stop-color:#000000"/>
		</linearGradient>
		<polygon class="st23" points="580.9,559 506.9,581 506.9,656 539.8,605.4 564.4,599.9 588.9,576 		"/>
	</g>
	
		<linearGradient id="SVGID_21_" gradientUnits="userSpaceOnUse" x1="775.3608" y1="144.3424" x2="868.3415" y2="263.3522" gradientTransform="matrix(-1 0 0 1 1393.9362 0)">
		<stop  offset="0" style="stop-color:#CCCCCC"/>
		<stop  offset="1" style="stop-color:#000000"/>
	</linearGradient>
	<polygon class="st24" points="685.7,196.8 580.9,306.5 506.9,149 	"/>
	<polygon class="st0" points="586.9,438 580.9,559 588.9,576 628,602.4 	"/>
	<g>
		<linearGradient id="SVGID_22_" gradientUnits="userSpaceOnUse" x1="432.9358" y1="784.9664" x2="527.2063" y2="716.4748">
			<stop  offset="0" style="stop-color:#FFFFFF"/>
			<stop  offset="1" style="stop-color:#000000"/>
		</linearGradient>
		<polygon class="st25" points="398.8,738 506.9,803 506.9,688.5 		"/>
		
			<linearGradient id="SVGID_23_" gradientUnits="userSpaceOnUse" x1="813.1092" y1="784.9663" x2="907.3797" y2="716.4748" gradientTransform="matrix(-1 0 0 1 1393.9362 0)">
			<stop  offset="0" style="stop-color:#FFFFFF"/>
			<stop  offset="1" style="stop-color:#000000"/>
		</linearGradient>
		<polygon class="st26" points="506.9,688.5 506.9,803 615,738 		"/>
	</g>
	<g>
		<linearGradient id="SVGID_24_" gradientUnits="userSpaceOnUse" x1="466.5957" y1="428.3281" x2="480.6199" y2="561.7601">
			<stop  offset="0" style="stop-color:#8C8C8C"/>
			<stop  offset="1" style="stop-color:#000000"/>
		</linearGradient>
		<polygon class="st27" points="426.9,438 506.9,559 506.9,424.1 		"/>
		
			<linearGradient id="SVGID_25_" gradientUnits="userSpaceOnUse" x1="846.769" y1="428.3281" x2="860.7933" y2="561.7601" gradientTransform="matrix(-1 0 0 1 1393.9362 0)">
			<stop  offset="0" style="stop-color:#8C8C8C"/>
			<stop  offset="1" style="stop-color:#000000"/>
		</linearGradient>
		<polygon class="st28" points="506.9,424.1 506.9,559 586.9,438 		"/>
	</g>
	
		<linearGradient id="SVGID_26_" gradientUnits="userSpaceOnUse" x1="681.0739" y1="554.6937" x2="708.6747" y2="380.4287" gradientTransform="matrix(-1 0 0 1 1393.9362 0)">
		<stop  offset="2.475247e-03" style="stop-color:#BABABA"/>
		<stop  offset="0.8812" style="stop-color:#292929"/>
	</linearGradient>
	<polygon class="st29" points="732.7,504 694.3,379 685.7,559 	"/>
	
		<linearGradient id="SVGID_27_" gradientUnits="userSpaceOnUse" x1="808.2495" y1="437.5886" x2="853.9766" y2="570.3897" gradientTransform="matrix(-1 0 0 1 1393.9362 0)">
		<stop  offset="0.3045" style="stop-color:#8C8C8C"/>
		<stop  offset="1" style="stop-color:#000000"/>
	</linearGradient>
	<polygon class="st30" points="586.9,438 506.9,559 580.9,559 	"/>
	
		<linearGradient id="SVGID_28_" gradientUnits="userSpaceOnUse" x1="710.5773" y1="603.1608" x2="771.7515" y2="599.9548" gradientTransform="matrix(-1 0 0 1 1393.9362 0)">
		<stop  offset="0.4183" style="stop-color:#BABABA"/>
		<stop  offset="1" style="stop-color:#3D3D3D"/>
	</linearGradient>
	<polygon class="st31" points="641.5,462.5 615,738 685.7,559 	"/>
	
		<linearGradient id="SVGID_29_" gradientUnits="userSpaceOnUse" x1="685.9468" y1="286.2699" x2="817.2006" y2="318.9951" gradientTransform="matrix(-1 0 0 1 1393.9362 0)">
		<stop  offset="0" style="stop-color:#8C8C8C"/>
		<stop  offset="0.9257" style="stop-color:#000000"/>
	</linearGradient>
	<polygon class="st32" points="685.7,196.8 599.1,408.5 580.9,306.5 	"/>
	<path class="st9" d="M966.3,460"/>
	<polygon points="611.2,379 673.3,365.3 694.3,379 645.9,419.3 586.9,438 	"/>
	<polygon class="st2" points="506.9,803 441.2,763.5 506.9,889.1 572.5,763.5 	"/>
	<polygon class="st2" points="544.8,816.6 565.2,835.3 547.9,930 624.7,835.3 597.6,748.4 572.5,763.5 	"/>
	<polygon class="st2" points="611.2,851.9 615,912 662.6,821 615,738 597.6,748.4 624.7,835.3 	"/>
	<polygon class="st2" points="769.4,730.8 718.1,862 705.7,794.5 708.1,788.9 682.9,670 651.3,644.7 680.1,574.8 743.2,672.3 	"/>
	<polygon class="st2" points="708.1,788.9 677.5,862 651.6,842 662.6,821 615,738 651.3,644.7 682.9,670 	"/>
	<polygon class="st2" points="904.7,162.7 966.3,41.9 839.9,68 754.6,151.8 821.9,117 846.6,172.7 	"/>
	<polygon class="st2" points="506.9,88.1 437.7,57.1 506.9,149 576,57.1 	"/>
	<polyline class="st2" points="506.9,149 640.6,89.1 700.9,0 600.3,24.8 506.9,149 	"/>
	<polygon class="st2" points="662.6,56.6 735.6,11.6 848.1,0 708.6,95.8 600,173.9 506.9,149 640.6,89.1 	"/>
	<path class="st2" d="M754.6,151.8"/>
	<polyline class="st2" points="732.7,504 685.7,559 680.1,574.8 743.2,672.3 795.3,788.9 803.2,621.7 786.7,563.7 732.7,504 	"/>
	
		<linearGradient id="SVGID_30_" gradientUnits="userSpaceOnUse" x1="894.935" y1="396.6125" x2="795.412" y2="368.0747" gradientTransform="matrix(-1 0 0 1 1393.9362 0)">
		<stop  offset="0" style="stop-color:#8C8C8C"/>
		<stop  offset="0.9307" style="stop-color:#000000"/>
	</linearGradient>
	<polygon class="st33" points="580.9,306.5 506.9,424.1 586.9,438 599.1,408.5 	"/>
	
		<linearGradient id="SVGID_31_" gradientUnits="userSpaceOnUse" x1="542.0151" y1="178.5905" x2="580.4807" y2="197.3515" gradientTransform="matrix(-1 0 0 1 1393.9362 0)">
		<stop  offset="0" style="stop-color:#BFBFBF"/>
		<stop  offset="1" style="stop-color:#000000"/>
	</linearGradient>
	<polygon class="st34" points="877.5,242.3 815.3,201.1 821.9,117 	"/>
	<polygon class="st35" points="506.9,559 432.9,559 506.9,581 580.9,559 	"/>
	<g>
		<linearGradient id="SVGID_32_" gradientUnits="userSpaceOnUse" x1="375.4872" y1="713.8456" x2="472.3823" y2="620.2751">
			<stop  offset="0" style="stop-color:#BABABA"/>
			<stop  offset="0.8342" style="stop-color:#000000"/>
		</linearGradient>
		<polygon class="st36" points="424.9,640.7 385.8,602.4 398.8,738 506.9,688.5 506.9,656 		"/>
		
			<linearGradient id="SVGID_33_" gradientUnits="userSpaceOnUse" x1="755.6606" y1="713.8456" x2="852.5557" y2="620.2751" gradientTransform="matrix(-1 0 0 1 1393.9362 0)">
			<stop  offset="0" style="stop-color:#BABABA"/>
			<stop  offset="0.8342" style="stop-color:#000000"/>
		</linearGradient>
		<polygon class="st37" points="588.9,640.7 506.9,656 506.9,688.5 615,738 628,602.4 		"/>
	</g>
	
		<linearGradient id="SVGID_34_" gradientUnits="userSpaceOnUse" x1="801.8919" y1="648.4141" x2="855.2281" y2="606.7432" gradientTransform="matrix(-1 0 0 1 1393.9362 0)">
		<stop  offset="0" style="stop-color:#8C8C8C"/>
		<stop  offset="1" style="stop-color:#242424"/>
	</linearGradient>
	<polygon class="st38" points="588.9,576 564.4,599.9 539.8,605.4 506.9,656 588.9,640.7 628,602.4 	"/>
	<g>
		<linearGradient id="SVGID_35_" gradientUnits="userSpaceOnUse" x1="572.2889" y1="376.5726" x2="441.4739" y2="196.5213">
			<stop  offset="0" style="stop-color:#787878"/>
			<stop  offset="1" style="stop-color:#000000"/>
		</linearGradient>
		<polygon class="st39" points="432.9,306.5 506.9,424.1 506.9,149 		"/>
		
			<linearGradient id="SVGID_36_" gradientUnits="userSpaceOnUse" x1="952.4622" y1="376.5726" x2="821.6473" y2="196.5213" gradientTransform="matrix(-1 0 0 1 1393.9362 0)">
			<stop  offset="0" style="stop-color:#787878"/>
			<stop  offset="1" style="stop-color:#000000"/>
		</linearGradient>
		<polygon class="st40" points="506.9,149 506.9,424.1 580.9,306.5 		"/>
	</g>
	
		<linearGradient id="SVGID_37_" gradientUnits="userSpaceOnUse" x1="538.1984" y1="214.4174" x2="655.4758" y2="306.0446" gradientTransform="matrix(-1 0 0 1 1393.9362 0)">
		<stop  offset="0.1832" style="stop-color:#8C8C8C"/>
		<stop  offset="1" style="stop-color:#000000"/>
	</linearGradient>
	<polygon class="st41" points="815.3,201.1 877.5,242.3 753.6,325.4 	"/>
	
		<linearGradient id="SVGID_38_" gradientUnits="userSpaceOnUse" x1="688.3184" y1="472.6108" x2="740.9042" y2="460.4704" gradientTransform="matrix(-1 0 0 1 1393.9362 0)">
		<stop  offset="0.401" style="stop-color:#8C8C8C"/>
		<stop  offset="0.9851" style="stop-color:#000000"/>
	</linearGradient>
	<polygon class="st42" points="694.3,379 666.5,402.2 685.7,559 	"/>
	
		<linearGradient id="SVGID_39_" gradientUnits="userSpaceOnUse" x1="727.436" y1="538.3196" x2="830.2233" y2="476.5588" gradientTransform="matrix(-1 0 0 1 1393.9362 0)">
		<stop  offset="0" style="stop-color:#8C8C8C"/>
		<stop  offset="0.9851" style="stop-color:#000000"/>
	</linearGradient>
	<polygon class="st43" points="624.7,426 641.5,462.5 628,602.4 586.9,438 	"/>
	
		<linearGradient id="SVGID_40_" gradientUnits="userSpaceOnUse" x1="642.619" y1="416.4336" x2="704.8016" y2="403.2162" gradientTransform="matrix(-1 0 0 1 1393.9362 0)">
		<stop  offset="0" style="stop-color:#8C8C8C"/>
		<stop  offset="1" style="stop-color:#000000"/>
	</linearGradient>
	<polyline class="st44" points="753.6,325.4 694.3,379 732.7,504 749.2,424.1 735.5,398.8 753.6,325.4 	"/>
	<polygon class="st2" points="771.9,325.4 898,394.7 911.8,390.6 911.8,516 868.2,486.3 735.5,398.8 753.6,325.4 	"/>
	<polygon class="st2" points="771.7,52.4 821.9,41.9 880.8,59.5 839.9,68 754.6,151.8 743.2,163.7 709.5,263.2 685.7,196.8 
		600,173.9 	"/>
	<polygon class="st2" points="729.4,204.5 822.9,279 924.8,248.6 942.9,258 976.5,256.7 943.9,325 771.9,325.4 753.6,325.4 
		709.5,263.2 	"/>
	
		<linearGradient id="SVGID_41_" gradientUnits="userSpaceOnUse" x1="640.3608" y1="325.3908" x2="640.3608" y2="325.3908" gradientTransform="matrix(-1 0 0 1 1393.9362 0)">
		<stop  offset="0" style="stop-color:#8C8C8C"/>
		<stop  offset="0.3639" style="stop-color:#989A9D"/>
		<stop  offset="1" style="stop-color:#000000"/>
	</linearGradient>
	<path class="st45" d="M753.6,325.4"/>
	
		<linearGradient id="SVGID_42_" gradientUnits="userSpaceOnUse" x1="612.1474" y1="118.4001" x2="609.6741" y2="189.2245" gradientTransform="matrix(-1 0 0 1 1393.9362 0)">
		<stop  offset="0" style="stop-color:#BFBFBF"/>
		<stop  offset="1" style="stop-color:#000000"/>
	</linearGradient>
	<polygon class="st46" points="754.6,151.8 821.9,117 790.7,189 743.2,163.7 	"/>
	<polygon class="st2" points="732.7,504 749.2,424.1 735.5,398.8 868.2,486.3 870.2,520.2 877.5,748.4 803.2,621.7 786.7,563.7 	"/>
	
		<linearGradient id="SVGID_43_" gradientUnits="userSpaceOnUse" x1="741.0156" y1="557.8563" x2="735.5685" y2="401.8717" gradientTransform="matrix(-1 0 0 1 1393.9362 0)">
		<stop  offset="0" style="stop-color:#8C8C8C"/>
		<stop  offset="0.7624" style="stop-color:#000000"/>
	</linearGradient>
	<polygon class="st47" points="666.5,402.2 645.9,419.3 624.7,426 685.7,559 	"/>
	<polygon class="st2" points="903.9,325.4 911.8,351.7 929.8,355.1 989.9,367.8 898,394.7 771.9,325.4 	"/>
	
		<linearGradient id="SVGID_44_" gradientUnits="userSpaceOnUse" x1="661.0266" y1="249.2263" x2="792.7617" y2="367.8412" gradientTransform="matrix(-1 0 0 1 1393.9362 0)">
		<stop  offset="0.3713" style="stop-color:#8A8A8A"/>
		<stop  offset="1" style="stop-color:#000000"/>
	</linearGradient>
	<polygon class="st48" points="685.7,196.8 709.5,263.2 753.6,325.4 694.3,379 673.3,365.3 611.2,379 	"/>
</g>
</svg>
